# xmcd
# 
# Track frame offsets:
#     150
#     49652
#     96872
#     129322
#     173695
#     217716
#     255515
# 
# Disc length: 4139
# 
# Revision: 0
# Processed by: cddbd v1.5.2PL0 Copyright (c) Steve Scherf et al.
# Submitted via: fre:ac v1.0.17
# 
DISCID=50102907
DTITLE=Timo Pervela - Emma und die falschen Pusteln CD2
DYEAR=2012
DGENRE=
TTITLE0=Er spricht in Bildern
TTITLE1=Ihr wundert Euch bestimmt
TTITLE2=Wir behalten den Patienten im Auge
TTITLE3=Riesenschnabelhörnchen
TTITLE4=Ein Tipi für den Unterricht
TTITLE5=Ja, ich will
TTITLE6=Zivilisation
EXTD=
EXTT0=
EXTT1=
EXTT2=
EXTT3=
EXTT4=
EXTT5=
EXTT6=
PLAYORDER=
